<svg width="31" height="30" viewBox="0 0 31 30" fill="none" xmlns="http://www.w3.org/2000/svg">
<path d="M24.5174 2.70154L16 0V30C17.4522 29.7599 20.4496 29.2642 20.8216 29.2024C21.1936 29.1407 21.564 28.2676 21.7027 27.8388L24.0523 22.2298C25.6432 21.0806 28.9327 18.6895 29.3634 18.319C29.7942 17.9485 29.8203 17.2384 29.7795 16.9297C29.494 14.8628 28.918 10.6467 28.8984 10.3173C28.8788 9.98799 28.9392 9.80274 28.9718 9.75129C29.1187 9.47684 29.6571 8.43911 30.6362 6.48371C31.8599 4.03945 29.6327 0.797599 29.29 0.437393C29.0159 0.149228 28.5558 0.317324 28.36 0.437393C27.381 1.07204 25.3593 2.38765 25.1048 2.5729C24.8502 2.75815 24.6071 2.73585 24.5174 2.70154Z" fill="#5478F7"/>
<path d="M6.91481 2.70154L16 0V30C14.451 29.7599 11.2538 29.2642 10.8569 29.2024C10.4601 29.1407 10.065 28.2676 9.9171 27.8388L7.41084 22.2298C5.7139 21.0806 2.20514 18.6895 1.74566 18.319C1.28618 17.9485 1.25833 17.2384 1.30184 16.9297C1.60642 14.8628 2.2208 10.6467 2.24169 10.3173C2.26257 9.98799 2.19818 9.80274 2.16337 9.75129C2.00673 9.47684 1.43237 8.43911 0.388101 6.48371C-0.917242 4.03945 1.45848 0.797599 1.82398 0.437393C2.11637 0.149228 2.60718 0.317324 2.81604 0.437393C3.86031 1.07204 6.01674 2.38765 6.28825 2.5729C6.55976 2.75815 6.81909 2.73585 6.91481 2.70154Z" fill="#3561FE"/>
</svg>
