<svg xmlns="http://www.w3.org/2000/svg" width="200" height="100" viewBox="0 1000 2500 3000" enable-background="new 0 1250 2500 2500"><path fill="#39DCB4" d="M1252.5 1261.5c167.5 0 327.5 33 480.5 98.5 152.5 65.5 284 153.5 394.5 264s198.5 242 264 394.5 98.5 313 98.5 480.5c0 168.5-33 329-98.5 481.5s-153.5 284-264 394.5-242 198-394.5 263.5-313 98-480.5 98c-168.5 0-329-32.5-481.5-98s-284-153-394.5-263.5-198-242-263.5-394.5-98-313-98-481.5c0-167.5 32.5-327.5 98-480.5 65.5-152.5 153-284 263.5-394.5s242-198.5 394.5-264 313-98.5 481.5-98.5zm0 1346.5l773.5-579c0-27.5-9.5-50.5-28.5-69s-42-28-69.5-28h-1351c-27.5 0-50.5 9.5-69.5 28s-28.5 41.5-28.5 69l773.5 579zm773.5 361v-739.5l-773.5 579-773.5-579v739.5c0 27.5 9.5 50.5 28.5 69s42 28 69.5 28h1351c27.5 0 50.5-9.5 69.5-28s28.5-41.5 28.5-69z"/></svg>
