<svg xmlns="http://www.w3.org/2000/svg" xmlns:xlink="http://www.w3.org/1999/xlink" viewBox="-60 0 175 70" width="200" height="100"><defs><style>.cls-1{fill:#253858;}.cls-2{fill:url(#linear-gradient);}.cls-3{fill:url(#linear-gradient-2);}.cls-4{fill:#2684ff;}</style>
    <linearGradient id="linear-gradient" x1="30.03" y1="6.57" x2="30.03" y2="43.2" gradientUnits="userSpaceOnUse"><stop offset="0" stop-color="#2684ff"/><stop offset="0.82" stop-color="#0052cc"/></linearGradient><linearGradient id="linear-gradient-2" x1="19.05" y1="42.17" x2="31.32" y2="67.85" gradientUnits="userSpaceOnUse"><stop offset="0" stop-color="#2684ff"/><stop offset="0.62" stop-color="#0052cc"/></linearGradient></defs><title>Opsgenie-blue-rgb</title><circle class="cls-2" cx="30.03" cy="18.48" r="17.84"/><path class="cls-3" d="M28.51,71.7A86.06,86.06,0,0,1,.26,42.17a2,2,0,0,1,.87-2.77l13.51-6.63a2,2,0,0,1,2.61.8,66.79,66.79,0,0,0,29,26.25A86.5,86.5,0,0,1,31.55,71.7,2.87,2.87,0,0,1,28.51,71.7Z"/><path class="cls-4" d="M31.55,71.7A86,86,0,0,0,59.8,42.17a2,2,0,0,0-.86-2.77L45.42,32.77a2,2,0,0,0-2.61.8,66.76,66.76,0,0,1-29,26.25A86,86,0,0,0,28.51,71.7,2.87,2.87,0,0,0,31.55,71.7Z"/></svg>
